# xmcd CD database file
#
# Track frame offsets:
#	150
#	16125
#	33762
#
# Disc length: 735 seconds
#
# Revision: 0
# Processed by: cddbd v1.5.1PL0 Copyright (c) Steve Scherf et al.
# Submitted via: CDex 1.51
#
DISCID=1302dd03
DTITLE=Paul Gilbert - Girls Who Can Read Your Mind (EP)
DYEAR=1998
DGENRE=Hard Rock
TTITLE0=Girls Who Can Read Your Mind
TTITLE1=Lucy Brown
TTITLE2=Bennie And The Jets
EXTD=YEAR: 1998
EXTT0=
EXTT1=
EXTT2=
PLAYORDER=
